#!OML:ASF F:\VICON\USERDATA\INSTALL\rory3\rory3.ASF
:FULLY-SPECIFIED
:DEGREES
1252
root 1.1571 18.959 0.892231 -3.18895 21.7631 -10.0093
lowerback 6.69129 5.38935 1.5409
upperback -0.295879 7.13899 -4.97733
thorax -3.21327 3.50784 -6.68055
lowerneck -14.9349 -4.96638 -5.8747
upperneck 0.169054 -6.24531 14.1965
head 3.15876 -2.4878 4.87198
rclavicle 6.83819e-014 -3.18055e-014
rhumerus 51.8964 -41.8064 -48.2782
rradius 38.3694
rwrist 27.1725
rhand -61.1083 9.9284
rfingers 7.12502
rthumb -33.2063 -17.0281
lclavicle 6.83819e-014 -3.18055e-014
lhumerus -24.4695 -20.4422 70.9422
lradius 69.9292
lwrist -2.28931
lhand -29.1716 24.6186
lfingers 7.12502
lthumb -2.51741 54.5835
rfemur 2.87349 2.7306 20.4866
rtibia 25.6496
rfoot -6.2918 -35.017
rtoes -2.90838
lfemur -13.4647 -14.7744 -3.02965
ltibia 23.6718
lfoot -8.92067 6.81192
ltoes -13.3863
1253
root 1.19641 18.9674 0.897899 -3.22639 22.1311 -10.3376
lowerback 6.81616 5.42623 1.61744
upperback -0.356221 7.18849 -5.09093
thorax -3.31583 3.52719 -6.86602
lowerneck -14.9166 -5.17544 -6.04347
upperneck 0.225831 -6.52716 14.5575
head 3.22473 -2.61027 4.98832
rclavicle 1.86858e-014 3.49861e-014
rhumerus 51.5617 -41.723 -47.3933
rradius 38.6142
rwrist 27.9424
rhand -61.4874 10.4967
rfingers 7.12502
rthumb -33.5666 -16.3822
lclavicle 1.86858e-014 3.49861e-014
lhumerus -24.7371 -19.9889 70.4691
lradius 69.7164
lwrist -2.45424
lhand -29.1929 24.7903
lfingers 7.12502
lthumb -2.53797 54.755
rfemur 2.66158 2.38292 20.5996
rtibia 25.9342
rfoot -5.77922 -34.7621
rtoes -2.8228
lfemur -13.6731 -14.9156 -2.79729
ltibia 23.7336
lfoot -8.98332 6.59814
ltoes -13.0851
1254
root 1.23477 18.976 0.906281 -3.2601 22.4318 -10.5959
lowerback 6.90115 5.47725 1.65168
upperback -0.370503 7.25456 -5.23291
thorax -3.34712 3.55851 -7.05111
lowerneck -14.9288 -5.36184 -6.17575
upperneck 0.195169 -6.77267 14.9095
head 3.26556 -2.71601 5.09883
rclavicle 1.31198e-014 -3.18055e-015
rhumerus 51.3012 -41.6616 -46.6289
rradius 38.9793
rwrist 28.7
rhand -61.6694 9.34507
rfingers 7.12502
rthumb -33.7396 -17.4961
lclavicle 1.31198e-014 -3.18055e-015
lhumerus -24.9431 -19.5139 69.9976
lradius 69.4642
lwrist -2.57412
lhand -29.2242 24.7378
lfingers 7.12502
lthumb -2.5682 54.7021
rfemur 2.41557 2.16357 20.6574
rtibia 26.2718
rfoot -5.5766 -34.6825
rtoes -2.45185
lfemur -13.7963 -15.0746 -2.64562
ltibia 23.7277
lfoot -8.97543 6.4911
ltoes -13.0105
1255
root 1.26964 18.9846 0.917662 -3.29907 22.741 -10.7607
lowerback 6.95348 5.50208 1.52081
upperback -0.334718 7.27404 -5.35272
thorax -3.33703 3.57133 -7.11001
lowerneck -14.8485 -5.47827 -6.23994
upperneck 0.0421911 -6.9197 15.2023
head 3.24035 -2.7834 5.19001
rclavicle -3.97569e-014 4.45278e-014
rhumerus 51.1962 -41.4943 -45.9456
rradius 39.3099
rwrist 29.3021
rhand -61.9859 9.50549
rfingers 7.12502
rthumb -34.0403 -17.2693
lclavicle -3.97569e-014 4.45278e-014
lhumerus -25.1975 -19.054 69.5151
lradius 69.263
lwrist -2.5517
lhand -29.7248 25.2676
lfingers 7.12502
lthumb -3.05172 55.2255
rfemur 2.23045 2.08968 20.6729
rtibia 26.5896
rfoot -5.3343 -34.6669
rtoes -1.66339
lfemur -13.8725 -15.3343 -2.58415
ltibia 23.7121
lfoot -8.98035 6.45838
ltoes -12.9354
1256
root 1.30421 18.993 0.926528 -3.30233 23.0649 -10.9425
lowerback 7.00573 5.54318 1.37596
upperback -0.337388 7.31336 -5.43996
thorax -3.37052 3.59212 -7.13137
lowerneck -14.7489 -5.6353 -6.35546
upperneck -0.038916 -7.12225 15.477
head 3.24103 -2.87832 5.27888
rclavicle -1.24042e-013 2.22639e-014
rhumerus 51.0802 -41.262 -45.2192
rradius 39.6084
rwrist 29.8007
rhand -62.2103 11.2433
rfingers 7.12502
rthumb -34.2535 -15.4839
lclavicle -1.24042e-013 2.22639e-014
lhumerus -25.537 -18.7376 69.2018
lradius 69.1565
lwrist -2.29485
lhand -30.5465 26.7252
lfingers 7.12502
lthumb -3.84524 56.6703
rfemur 1.98935 1.90683 20.6696
rtibia 26.8842
rfoot -4.71737 -34.6027
rtoes -2.11325
lfemur -14.004 -15.5718 -2.49538
ltibia 23.6885
lfoot -8.95936 6.41144
ltoes -12.8374
1257
root 1.33807 19.0024 0.936911 -3.28837 23.3817 -11.0942
lowerback 7.06144 5.58453 1.22251
upperback -0.356518 7.35112 -5.53921
thorax -3.42289 3.61143 -7.16254
lowerneck -14.711 -5.7999 -6.58384
upperneck -0.0704957 -7.32539 15.8414
head 3.27646 -2.96588 5.4136
rclavicle -6.95746e-014 2.54444e-014
rhumerus 50.7896 -40.9529 -44.3577
rradius 39.9985
rwrist 30.209
rhand -62.4345 11.4842
rfingers 7.12502
rthumb -34.4663 -15.1948
lclavicle -6.95746e-014 2.54444e-014
lhumerus -25.8322 -18.2089 68.8474
lradius 68.8953
lwrist -2.30384
lhand -30.6402 26.5842
lfingers 7.12502
lthumb -3.93567 56.5276
rfemur 1.76202 1.6518 20.6163
rtibia 27.1585
rfoot -4.07172 -34.4205
rtoes -3.27703
lfemur -14.146 -15.7371 -2.4344
ltibia 23.684
lfoot -8.93621 6.28422
ltoes -12.9077
1258
root 1.37195 19.0112 0.944674 -3.34658 23.6727 -11.412
lowerback 7.12091 5.58474 1.26281
upperback -0.377712 7.35102 -5.6166
thorax -3.46297 3.60911 -7.27621
lowerneck -14.6124 -5.90842 -6.71207
upperneck -0.160331 -7.46316 16.1868
head 3.27391 -3.02637 5.53299
rclavicle -4.49253e-014 3.81667e-014
rhumerus 50.429 -40.5575 -43.4547
rradius 40.431
rwrist 30.5204
rhand -62.7836 13.0838
rfingers 7.12502
rthumb -34.7977 -13.5192
lclavicle -4.49253e-014 3.81667e-014
lhumerus -26.0989 -17.3717 68.323
lradius 68.4898
lwrist -2.77658
lhand -29.6555 24.5885
lfingers 7.12502
lthumb -2.98472 54.5473
rfemur 1.53618 1.43592 20.7404
rtibia 27.42
rfoot -3.75629 -34.1888
rtoes -5.23733
lfemur -14.319 -15.8832 -2.19894
ltibia 23.727
lfoot -8.94684 6.16633
ltoes -12.7875
1259
root 1.40786 19.0182 0.94975 -3.4176 23.9322 -11.7352
lowerback 7.17708 5.57404 1.31956
upperback -0.393648 7.33844 -5.67825
thorax -3.49739 3.60049 -7.38072
lowerneck -14.5341 -6.00211 -6.75692
upperneck -0.161453 -7.60143 16.4447
head 3.29363 -3.08696 5.6101
rclavicle 8.82604e-014 -3.81667e-014
rhumerus 50.0638 -40.048 -42.4863
rradius 40.8891
rwrist 30.7406
rhand -62.8348 14.0956
rfingers 7.12502
rthumb -34.8462 -12.4962
lclavicle 8.82604e-014 -3.81667e-014
lhumerus -26.4597 -16.6595 67.8827
lradius 68.238
lwrist -2.79304
lhand -29.2347 23.9271
lfingers 7.12502
lthumb -2.57833 53.8912
rfemur 1.3123 1.23591 20.8547
rtibia 27.6902
rfoot -3.71811 -33.9568
rtoes -7.80494
lfemur -14.4527 -16.0352 -1.96939
ltibia 23.7685
lfoot -8.97218 6.07911
ltoes -12.6064
1260
root 1.44002 19.024 0.956753 -3.46496 24.1879 -11.956
lowerback 7.25462 5.56246 1.25212
upperback -0.369258 7.31494 -5.72964
thorax -3.51998 3.58947 -7.40384
lowerneck -14.5363 -6.07193 -6.80422
upperneck -0.196346 -7.6923 16.5916
head 3.30466 -3.12643 5.65598
rclavicle 5.32743e-014 -6.36111e-015
rhumerus 49.884 -39.5246 -41.6035
rradius 41.2548
rwrist 31.2469
rhand -62.7031 13.2222
rfingers 7.12502
rthumb -34.7212 -13.3985
lclavicle 5.32743e-014 -6.36111e-015
lhumerus -26.859 -16.1896 67.5889
lradius 68.1764
lwrist -2.16607
lhand -29.9363 25.1014
lfingers 7.12502
lthumb -3.25589 55.0562
rfemur 1.13383 1.14224 20.8906
rtibia 27.9615
rfoot -3.82522 -33.8948
rtoes -9.61773
lfemur -14.5622 -16.177 -1.83888
ltibia 23.8057
lfoot -9.00205 5.97556
ltoes -12.5165
1261
root 1.46982 19.0321 0.965674 -3.50995 24.4206 -12.1594
lowerback 7.32139 5.59413 1.14372
upperback -0.33675 7.34599 -5.77838
thorax -3.52633 3.60705 -7.40339
lowerneck -14.3913 -6.17309 -6.79261
upperneck -0.451729 -7.80645 16.6627
head 3.22254 -3.19504 5.66945
rclavicle -6.59965e-014 2.8625e-014
rhumerus 49.5773 -38.9808 -40.5809
rradius 41.5956
rwrist 31.7547
rhand -62.75 12.5958
rfingers 7.12502
rthumb -34.7657 -14.0147
lclavicle -6.59965e-014 2.8625e-014
lhumerus -27.189 -15.754 67.3114
lradius 68.0425
lwrist -1.8282
lhand -30.2782 26.3007
lfingers 7.12502
lthumb -3.58609 56.2503
rfemur 0.974459 0.982533 20.8962
rtibia 28.2058
rfoot -3.67619 -33.8536
rtoes -10.7734
lfemur -14.6619 -16.3047 -1.72191
ltibia 23.8504
lfoot -9.02915 5.87791
ltoes -12.3521
1262
root 1.49911 19.0406 0.97168 -3.58183 24.5741 -12.416
lowerback 7.40944 5.66285 1.09133
upperback -0.328977 7.43014 -5.81895
thorax -3.55752 3.64895 -7.43437
lowerneck -14.263 -6.31987 -6.85216
upperneck -0.591409 -7.99367 16.8588
head 3.1967 -3.29013 5.72649
rclavicle -5.36719e-014 -1.90833e-014
rhumerus 49.1262 -38.3819 -39.4069
rradius 41.8741
rwrist 32.3101
rhand -63.0506 14.3642
rfingers 7.12502
rthumb -35.0509 -12.1799
lclavicle -5.36719e-014 -1.90833e-014
lhumerus -27.4393 -15.2703 67.0418
lradius 67.737
lwrist -1.87532
lhand -29.9934 26.5188
lfingers 7.12502
lthumb -3.31109 56.4728
rfemur 0.733351 0.822705 20.9331
rtibia 28.4707
rfoot -2.09101 -33.7205
rtoes -8.93184
lfemur -14.7278 -16.4204 -1.54863
ltibia 23.8776
lfoot -9.06965 5.86117
ltoes -12.3124
